PathFileType   4   (X/Y/Z)
DataRate  CameraRate  NumFrames  NumMarkers  Units  OrigDataRate  OrigDataStartFrame  OrigNumFrames  
  120.0      120.0        12         37         mm      120.0          41        160
Frame#      Time                    midhip                           hip_r                           hip_l                          knee_r                          knee_l                         ankle_r                         ankle_l                         midasis                          asis_r                          asis_l                          psis_r                          psis_l                    epicondLat_r                    epicondLat_l                    epicondMed_r                    epicondMed_l                  malleolusLat_r                  malleolusLat_l                 malleolusMedv_r                 malleolusMedv_l                            neck                   subclavicle_r                   subclavicle_l                    sternalnotch                  xyphoidprocess                     thighwand_r                     thighwand_l                     upperleg1_r                     upperleg1_l                     upperleg2_r                     upperleg2_l                     shankwand_r                     shankwand_l                     lowerleg1_r                     lowerleg1_l                           toe_r                           toe_l            
              X1          Y1          Z1          X2          Y2          Z2          X3          Y3          Z3          X4          Y4          Z4          X5          Y5          Z5          X6          Y6          Z6          X7          Y7          Z7          X8          Y8          Z8          X9          Y9          Z9          X10          Y10          Z10          X11          Y11          Z11          X12          Y12          Z12          X13          Y13          Z13          X14          Y14          Z14          X15          Y15          Z15          X16          Y16          Z16          X17          Y17          Z17          X18          Y18          Z18          X19          Y19          Z19          X20          Y20          Z20          X21          Y21          Z21          X22          Y22          Z22          X23          Y23          Z23          X24          Y24          Z24          X25          Y25          Z25          X26          Y26          Z26          X27          Y27          Z27          X28          Y28          Z28          X29          Y29          Z29          X30          Y30          Z30          X31          Y31          Z31          X32          Y32          Z32          X33          Y33          Z33          X34          Y34          Z34          X35          Y35          Z35          X36          Y36          Z36          X37          Y37          Z37          

	41	0.43333	326.977	743.529	-215.174	312.541	740.968	-159.649	341.412	746.090	-270.699	166.786	427.518	-152.009	449.186	397.936	-278.438	60.716	76.727	-175.197	620.087	89.308	-288.503	362.716	815.256	-203.344	350.200	815.859	-93.762	375.231	814.653	-312.927	184.652	849.900	-196.724	190.668	845.520	-253.110	183.818	413.266	-93.366	471.558	411.674	-337.169	200.713	415.976	-215.818	467.176	402.308	-209.648	49.017	78.642	-139.620	608.016	84.665	-322.635	65.865	74.200	-208.538	621.548	93.995	-255.543	262.990	1240.735	-201.544	365.109	1158.524	-151.410	372.573	1164.558	-256.231	366.219	1161.682	-207.090	366.920	1059.837	-215.429	345.793	514.689	-91.904	502.610	580.617	-347.866	298.467	568.725	-69.864	462.129	611.360	-285.234	271.721	516.770	-78.716	479.076	556.535	-274.786	207.433	148.887	-123.407	546.187	178.633	-408.964	134.614	161.351	-152.706	564.844	176.090	-331.942	133.101	48.559	-152.192	706.977	112.962	-297.731
	42	0.44167	339.566	741.833	-214.704	325.020	739.394	-159.203	354.112	744.271	-270.206	176.006	427.397	-150.998	462.998	397.534	-277.595	61.982	79.065	-174.030	634.223	88.278	-287.184	375.205	813.666	-203.018	362.456	814.510	-93.447	387.954	812.822	-312.588	197.139	848.060	-197.281	203.176	843.633	-253.653	193.631	412.518	-92.451	485.082	410.573	-336.265	210.179	414.739	-214.868	482.348	401.054	-210.261	50.669	81.148	-138.338	622.188	83.586	-321.322	66.827	76.156	-207.372	635.539	92.984	-254.200	274.448	1238.986	-202.432	376.193	1157.009	-151.911	383.821	1163.010	-257.308	377.389	1160.149	-207.882	378.094	1058.299	-216.156	356.508	512.870	-90.826	515.776	579.232	-347.287	309.401	567.281	-69.538	475.446	610.433	-284.304	281.837	515.465	-78.169	492.695	555.951	-274.469	211.030	147.481	-123.371	560.288	177.384	-407.834	138.034	161.711	-152.244	578.821	174.788	-330.833	133.860	49.283	-151.546	721.137	112.519	-297.230
	43	0.45000	352.336	740.367	-214.298	337.686	738.004	-158.820	366.986	742.729	-269.775	185.930	426.459	-150.073	476.686	397.505	-276.830	63.520	81.781	-172.767	646.960	86.744	-285.414	387.864	812.280	-202.723	374.909	813.275	-93.181	400.818	811.284	-312.266	209.822	846.395	-197.853	215.927	841.978	-254.196	203.944	411.778	-91.551	498.796	409.617	-335.430	219.809	412.433	-212.261	497.065	399.907	-210.974	52.611	84.029	-136.959	634.932	81.997	-319.547	66.471	77.709	-206.028	647.783	91.296	-252.307	285.495	1237.580	-203.116	387.734	1155.382	-152.793	395.382	1161.752	-257.999	388.941	1158.712	-208.669	389.864	1056.893	-217.295	367.707	511.212	-89.924	529.212	578.341	-346.505	320.709	566.164	-69.253	489.062	609.758	-283.157	292.610	514.341	-77.129	506.451	555.497	-273.967	214.878	146.212	-123.306	573.361	175.711	-406.356	138.481	161.345	-151.920	591.441	172.776	-329.357	134.822	50.120	-150.861	733.903	111.176	-296.095
	44	0.45833	365.289	739.140	-213.989	350.539	736.800	-158.537	380.040	741.479	-269.440	196.997	424.966	-149.188	491.065	396.662	-276.114	65.399	84.887	-171.433	658.413	84.811	-283.273	400.710	811.092	-202.497	387.588	812.136	-92.987	413.832	810.047	-312.008	222.704	844.929	-198.422	228.932	840.551	-254.708	214.801	411.034	-90.676	512.630	408.785	-334.637	230.372	409.850	-209.303	510.950	399.855	-209.112	54.898	87.299	-135.514	646.380	80.015	-317.397	68.302	81.293	-204.775	659.044	89.063	-250.081	296.739	1236.441	-204.364	399.654	1154.265	-153.704	407.064	1160.529	-259.004	400.734	1157.531	-209.622	401.908	1055.704	-218.123	379.430	509.743	-89.223	542.889	577.904	-345.525	332.507	565.306	-68.907	502.607	609.323	-282.493	304.148	513.256	-75.964	520.133	555.071	-272.939	219.001	145.072	-123.190	585.529	173.723	-404.581	143.676	162.309	-150.617	603.303	170.740	-327.207	136.011	51.078	-150.138	745.368	108.943	-294.221
	45	0.46667	378.449	738.132	-213.853	363.618	735.750	-158.424	393.279	740.513	-269.281	206.158	426.128	-148.388	505.004	396.432	-275.280	67.684	88.389	-170.042	668.711	82.615	-280.855	413.759	810.090	-202.377	400.516	811.079	-92.890	427.001	809.102	-311.864	235.791	843.678	-198.997	242.174	839.343	-255.170	226.261	410.264	-89.832	526.494	408.055	-333.855	238.507	409.596	-206.321	523.264	399.878	-207.642	57.583	90.971	-134.021	656.689	77.790	-314.979	70.275	85.070	-203.455	669.365	86.625	-247.633	308.424	1235.420	-205.732	411.663	1153.713	-154.516	418.921	1159.539	-260.280	412.662	1156.738	-210.662	414.106	1054.877	-218.700	391.691	508.490	-88.716	556.771	577.837	-344.371	344.800	564.367	-68.494	515.772	609.332	-281.587	315.551	513.055	-74.722	533.254	554.808	-271.680	223.428	144.055	-122.992	596.956	171.574	-402.573	148.575	163.629	-149.571	614.498	168.790	-324.779	137.448	52.152	-149.367	755.658	105.854	-291.560
	46	0.47500	391.825	737.309	-213.960	376.960	734.820	-158.546	406.690	739.798	-269.375	218.288	425.661	-147.621	517.885	397.097	-274.339	70.448	92.296	-168.603	677.976	80.305	-278.263	427.004	809.257	-202.396	413.702	810.088	-92.915	440.305	808.426	-311.877	249.076	842.651	-199.582	255.610	838.352	-255.574	238.394	409.441	-89.015	540.285	407.406	-333.054	250.579	409.180	-205.927	533.537	399.715	-207.542	60.731	95.060	-132.490	666.015	75.489	-312.409	72.582	89.159	-202.070	678.459	83.926	-244.957	320.429	1234.308	-206.798	423.753	1153.296	-155.799	430.971	1159.059	-261.354	424.731	1156.276	-211.841	426.605	1054.415	-219.799	404.507	507.466	-88.386	570.818	578.022	-343.095	357.236	563.439	-67.940	528.787	609.642	-280.600	327.973	512.354	-74.209	545.755	554.796	-270.631	228.191	143.162	-122.683	607.826	169.444	-400.410	153.586	165.170	-148.549	624.878	166.518	-322.277	139.160	53.330	-148.543	764.911	101.971	-288.153
	47	0.48333	405.387	736.656	-214.325	390.531	734.011	-158.916	420.244	739.301	-269.735	233.888	423.062	-146.806	530.487	398.199	-273.365	73.780	96.618	-167.119	686.306	78.029	-275.604	440.423	808.571	-202.584	427.137	809.159	-93.083	453.710	807.982	-312.084	262.532	841.853	-200.157	269.174	837.584	-255.915	251.267	408.542	-88.218	553.893	406.837	-332.212	267.273	407.807	-208.018	542.902	399.237	-208.698	64.419	99.582	-130.928	674.494	73.277	-309.812	75.403	93.791	-200.648	686.003	80.991	-242.084	332.639	1233.220	-207.905	436.000	1152.897	-157.170	443.085	1158.820	-262.791	436.908	1155.948	-213.242	439.232	1054.107	-221.322	417.920	506.660	-88.226	584.969	578.333	-341.771	370.002	562.759	-67.606	541.800	609.989	-279.733	341.511	510.954	-74.654	558.043	554.720	-269.936	233.342	142.405	-122.235	618.319	167.516	-398.176	159.045	167.006	-147.387	634.180	163.847	-319.822	141.188	54.592	-147.670	773.258	97.393	-284.132
	48	0.49167	419.059	736.157	-214.908	404.253	733.329	-159.494	433.865	738.985	-270.322	249.427	421.149	-145.953	543.207	399.943	-272.321	77.766	101.366	-165.603	693.755	75.916	-272.990	453.982	808.018	-202.960	440.796	808.303	-93.413	467.169	807.732	-312.507	276.115	841.284	-200.690	282.793	837.051	-256.188	264.941	407.557	-87.422	567.225	406.375	-331.332	283.724	406.538	-209.731	552.832	398.106	-211.618	68.732	104.550	-129.348	682.219	71.297	-307.309	79.058	98.454	-199.142	691.821	77.765	-239.120	344.778	1232.485	-208.791	448.497	1152.716	-158.447	455.263	1158.538	-264.407	449.236	1155.702	-214.681	451.923	1053.860	-222.629	431.981	506.067	-88.230	599.145	578.658	-340.489	383.432	562.101	-67.783	554.810	610.324	-278.517	355.543	509.968	-75.296	570.456	554.493	-269.488	238.951	141.816	-121.623	628.581	165.958	-395.963	165.270	169.039	-146.433	642.243	160.901	-317.346	143.588	55.916	-146.779	780.801	92.259	-279.724
	49	0.50000	432.733	735.788	-215.680	418.023	732.769	-160.250	447.443	738.807	-271.109	263.793	419.727	-145.157	554.977	401.768	-271.219	82.502	106.528	-164.075	700.339	74.051	-270.529	467.630	807.600	-203.534	454.634	807.552	-93.915	480.626	807.647	-313.154	289.770	840.934	-201.144	296.384	836.771	-256.395	279.455	406.490	-86.596	580.216	406.083	-330.432	298.053	404.494	-209.014	562.083	397.227	-214.401	73.756	109.955	-127.770	689.229	69.642	-305.016	83.292	102.707	-197.482	696.848	74.175	-236.368	356.981	1231.986	-210.184	461.362	1152.660	-160.332	467.445	1158.430	-265.767	461.739	1155.608	-216.287	464.817	1053.774	-224.206	446.735	505.703	-88.375	613.243	578.933	-339.337	397.654	561.189	-68.439	568.212	610.515	-277.363	369.931	509.218	-75.469	582.873	554.405	-269.132	245.117	141.442	-120.822	638.695	164.894	-393.868	171.627	170.681	-145.629	649.937	158.080	-314.500	146.416	57.278	-145.914	787.604	86.743	-275.223
	50	0.50833	446.360	735.545	-216.617	431.791	732.343	-161.161	460.930	738.747	-272.073	277.251	418.777	-144.400	565.679	402.311	-270.173	88.109	112.069	-162.557	706.037	72.464	-268.318	481.306	807.337	-204.308	468.592	806.957	-94.593	494.021	807.717	-314.024	303.434	840.782	-201.471	309.873	836.747	-256.538	294.829	405.364	-85.707	592.857	406.041	-329.540	310.625	402.077	-206.315	570.524	397.634	-214.070	79.607	115.762	-126.220	695.516	68.347	-303.025	87.630	106.531	-195.625	702.200	70.938	-234.122	369.247	1231.690	-212.165	474.131	1152.624	-162.164	479.698	1158.585	-267.316	474.236	1155.663	-217.966	477.668	1053.855	-226.079	462.212	505.599	-88.624	627.147	579.167	-338.386	412.745	560.036	-69.231	582.352	610.627	-276.968	384.723	508.446	-75.138	595.591	554.347	-268.552	251.966	141.338	-119.801	648.667	164.372	-391.997	177.107	171.831	-144.797	658.286	156.326	-311.513	149.714	58.652	-145.115	793.688	81.067	-270.970
	51	0.51667	459.949	735.456	-217.692	445.570	732.098	-162.195	474.327	738.814	-273.189	294.285	416.324	-143.496	576.839	401.650	-269.299	94.736	117.920	-161.065	710.820	71.135	-266.432	494.947	807.266	-205.277	482.604	806.570	-95.448	507.291	807.962	-315.106	317.042	840.795	-201.625	323.207	836.964	-256.605	311.056	404.219	-84.732	605.172	406.318	-328.699	327.540	399.291	-205.373	579.913	399.022	-211.125	86.420	121.909	-124.717	701.038	67.378	-301.395	94.711	111.900	-194.077	707.553	68.847	-232.412	381.563	1231.695	-213.956	486.899	1153.209	-163.896	492.085	1159.132	-269.142	486.802	1156.213	-219.735	490.702	1054.418	-227.795	478.412	505.798	-88.934	640.751	579.434	-337.671	428.816	559.172	-69.948	596.327	610.812	-277.117	401.258	507.350	-75.332	608.458	554.359	-267.681	259.638	141.547	-118.519	658.427	164.342	-390.456	187.060	174.123	-143.593	667.102	156.036	-309.249	153.519	60.021	-144.396	799.025	75.480	-267.298
	52	0.52500	473.479	735.578	-218.896	459.343	732.093	-163.344	487.616	739.062	-274.447	315.722	411.413	-142.408	590.197	401.295	-268.571	102.540	123.976	-159.606	714.681	70.013	-264.915	508.500	807.435	-206.428	496.614	806.443	-96.475	520.385	808.428	-316.380	330.543	840.941	-201.591	336.355	837.393	-256.581	328.107	403.096	-83.668	617.183	406.944	-327.976	349.561	395.178	-205.324	592.834	400.537	-208.600	94.339	128.304	-123.271	705.752	66.661	-300.147	102.439	115.458	-192.134	712.054	67.784	-231.134	394.051	1232.304	-215.426	500.336	1154.680	-166.291	504.488	1160.022	-271.150	499.692	1157.361	-221.912	504.086	1055.546	-229.446	495.289	506.342	-89.244	653.970	579.839	-337.196	445.559	559.025	-70.555	609.587	611.392	-277.339	419.604	505.998	-75.754	621.648	555.128	-267.116	268.267	142.089	-116.921	667.827	164.658	-389.320	196.661	175.572	-143.074	675.602	156.606	-308.062	157.881	61.392	-143.749	803.575	70.215	-264.458
